<mxfile host="app.diagrams.net" agent="Mozilla/5.0 (Windows NT 10.0; Win64; x64) AppleWebKit/537.36 (KHTML, like Gecko) Chrome/131.0.0.0 Safari/537.36" version="25.0.3">
  <diagram id="C5RBs43oDa-KdzZeNtuy" name="Page-1">
    <mxGraphModel dx="2261" dy="780" grid="1" gridSize="10" guides="1" tooltips="1" connect="1" arrows="1" fold="1" page="1" pageScale="1" pageWidth="827" pageHeight="1169" math="0" shadow="0">
      <root>
        <mxCell id="WIyWlLk6GJQsqaUBKTNV-0" />
        <mxCell id="WIyWlLk6GJQsqaUBKTNV-1" parent="WIyWlLk6GJQsqaUBKTNV-0" />
        <mxCell id="K_ub_zV081_PAnOze9xM-12" value="" style="endArrow=none;html=1;rounded=0;entryX=0.493;entryY=0.933;entryDx=0;entryDy=0;entryPerimeter=0;" edge="1" parent="WIyWlLk6GJQsqaUBKTNV-1">
          <mxGeometry width="50" height="50" relative="1" as="geometry">
            <mxPoint x="443" y="191" as="sourcePoint" />
            <mxPoint x="443.95000000000005" y="136.97000000000003" as="targetPoint" />
          </mxGeometry>
        </mxCell>
        <mxCell id="K_ub_zV081_PAnOze9xM-14" value="" style="edgeStyle=elbowEdgeStyle;elbow=vertical;endArrow=classic;html=1;curved=0;rounded=0;endSize=8;startSize=8;" edge="1" parent="WIyWlLk6GJQsqaUBKTNV-1">
          <mxGeometry width="50" height="50" relative="1" as="geometry">
            <mxPoint x="443" y="187" as="sourcePoint" />
            <mxPoint x="640" y="260" as="targetPoint" />
            <Array as="points">
              <mxPoint x="480" y="207" />
            </Array>
          </mxGeometry>
        </mxCell>
        <mxCell id="K_ub_zV081_PAnOze9xM-16" value="" style="edgeStyle=elbowEdgeStyle;elbow=vertical;endArrow=classic;html=1;curved=0;rounded=0;endSize=8;startSize=8;" edge="1" parent="WIyWlLk6GJQsqaUBKTNV-1">
          <mxGeometry width="50" height="50" relative="1" as="geometry">
            <mxPoint x="443" y="197" as="sourcePoint" />
            <mxPoint x="243" y="257" as="targetPoint" />
            <Array as="points">
              <mxPoint x="160" y="207" />
            </Array>
          </mxGeometry>
        </mxCell>
        <mxCell id="K_ub_zV081_PAnOze9xM-18" value="Jika pilihan&lt;div&gt;2&lt;/div&gt;" style="html=1;whiteSpace=wrap;aspect=fixed;shape=isoRectangle;" vertex="1" parent="WIyWlLk6GJQsqaUBKTNV-1">
          <mxGeometry x="565" y="260" width="150" height="90" as="geometry" />
        </mxCell>
        <mxCell id="K_ub_zV081_PAnOze9xM-19" value="" style="shape=ext;double=1;rounded=1;whiteSpace=wrap;html=1;" vertex="1" parent="WIyWlLk6GJQsqaUBKTNV-1">
          <mxGeometry x="168" y="260" width="150" height="60" as="geometry" />
        </mxCell>
        <mxCell id="K_ub_zV081_PAnOze9xM-23" value="" style="shape=ext;double=1;rounded=1;whiteSpace=wrap;html=1;" vertex="1" parent="WIyWlLk6GJQsqaUBKTNV-1">
          <mxGeometry x="160" y="400" width="150" height="60" as="geometry" />
        </mxCell>
        <mxCell id="K_ub_zV081_PAnOze9xM-24" value="" style="endArrow=classic;html=1;rounded=0;fontFamily=Helvetica;fontSize=12;fontColor=default;" edge="1" parent="WIyWlLk6GJQsqaUBKTNV-1">
          <mxGeometry width="50" height="50" relative="1" as="geometry">
            <mxPoint x="240" y="319" as="sourcePoint" />
            <mxPoint x="240" y="399" as="targetPoint" />
          </mxGeometry>
        </mxCell>
        <mxCell id="K_ub_zV081_PAnOze9xM-25" value="" style="endArrow=classic;html=1;rounded=0;fontFamily=Helvetica;fontSize=12;fontColor=default;" edge="1" parent="WIyWlLk6GJQsqaUBKTNV-1">
          <mxGeometry width="50" height="50" relative="1" as="geometry">
            <mxPoint x="239.5" y="460" as="sourcePoint" />
            <mxPoint x="239.5" y="540" as="targetPoint" />
          </mxGeometry>
        </mxCell>
        <mxCell id="K_ub_zV081_PAnOze9xM-33" value="" style="edgeStyle=none;rounded=0;orthogonalLoop=1;jettySize=auto;html=1;fontFamily=Helvetica;fontSize=12;fontColor=default;" edge="1" parent="WIyWlLk6GJQsqaUBKTNV-1" source="K_ub_zV081_PAnOze9xM-26" target="K_ub_zV081_PAnOze9xM-28">
          <mxGeometry relative="1" as="geometry" />
        </mxCell>
        <mxCell id="K_ub_zV081_PAnOze9xM-26" value="" style="shape=ext;double=1;rounded=1;whiteSpace=wrap;html=1;" vertex="1" parent="WIyWlLk6GJQsqaUBKTNV-1">
          <mxGeometry x="160" y="540" width="150" height="60" as="geometry" />
        </mxCell>
        <mxCell id="K_ub_zV081_PAnOze9xM-28" value="" style="shape=ext;double=1;rounded=1;whiteSpace=wrap;html=1;" vertex="1" parent="WIyWlLk6GJQsqaUBKTNV-1">
          <mxGeometry x="160" y="680" width="160" height="90" as="geometry" />
        </mxCell>
        <mxCell id="K_ub_zV081_PAnOze9xM-29" value="" style="endArrow=none;html=1;rounded=0;entryX=0.493;entryY=0.933;entryDx=0;entryDy=0;entryPerimeter=0;" edge="1" parent="WIyWlLk6GJQsqaUBKTNV-1">
          <mxGeometry width="50" height="50" relative="1" as="geometry">
            <mxPoint x="639.5" y="400" as="sourcePoint" />
            <mxPoint x="640.45" y="345.97" as="targetPoint" />
          </mxGeometry>
        </mxCell>
        <mxCell id="K_ub_zV081_PAnOze9xM-30" value="" style="edgeStyle=elbowEdgeStyle;elbow=vertical;endArrow=classic;html=1;curved=0;rounded=0;endSize=8;startSize=8;" edge="1" parent="WIyWlLk6GJQsqaUBKTNV-1">
          <mxGeometry width="50" height="50" relative="1" as="geometry">
            <mxPoint x="640" y="400" as="sourcePoint" />
            <mxPoint x="500" y="460" as="targetPoint" />
            <Array as="points">
              <mxPoint x="357" y="410" />
            </Array>
          </mxGeometry>
        </mxCell>
        <mxCell id="K_ub_zV081_PAnOze9xM-31" value="" style="edgeStyle=elbowEdgeStyle;elbow=vertical;endArrow=classic;html=1;curved=0;rounded=0;endSize=8;startSize=8;" edge="1" parent="WIyWlLk6GJQsqaUBKTNV-1">
          <mxGeometry width="50" height="50" relative="1" as="geometry">
            <mxPoint x="640" y="390.5" as="sourcePoint" />
            <mxPoint x="780" y="460" as="targetPoint" />
            <Array as="points">
              <mxPoint x="677" y="410.5" />
            </Array>
          </mxGeometry>
        </mxCell>
        <mxCell id="K_ub_zV081_PAnOze9xM-32" value="" style="shape=ext;double=1;rounded=1;whiteSpace=wrap;html=1;" vertex="1" parent="WIyWlLk6GJQsqaUBKTNV-1">
          <mxGeometry x="420" y="460" width="140" height="80" as="geometry" />
        </mxCell>
        <mxCell id="K_ub_zV081_PAnOze9xM-34" value="" style="endArrow=classic;html=1;rounded=0;fontFamily=Helvetica;fontSize=12;fontColor=default;" edge="1" parent="WIyWlLk6GJQsqaUBKTNV-1">
          <mxGeometry width="50" height="50" relative="1" as="geometry">
            <mxPoint x="496" y="545" as="sourcePoint" />
            <mxPoint x="496" y="625" as="targetPoint" />
          </mxGeometry>
        </mxCell>
        <mxCell id="K_ub_zV081_PAnOze9xM-35" value="" style="shape=ext;double=1;rounded=1;whiteSpace=wrap;html=1;" vertex="1" parent="WIyWlLk6GJQsqaUBKTNV-1">
          <mxGeometry x="420" y="627" width="150" height="60" as="geometry" />
        </mxCell>
        <mxCell id="K_ub_zV081_PAnOze9xM-36" value="" style="endArrow=classic;html=1;rounded=0;fontFamily=Helvetica;fontSize=12;fontColor=default;" edge="1" parent="WIyWlLk6GJQsqaUBKTNV-1">
          <mxGeometry width="50" height="50" relative="1" as="geometry">
            <mxPoint x="494.5" y="690" as="sourcePoint" />
            <mxPoint x="494.5" y="770" as="targetPoint" />
          </mxGeometry>
        </mxCell>
        <mxCell id="K_ub_zV081_PAnOze9xM-37" value="" style="shape=ext;double=1;rounded=1;whiteSpace=wrap;html=1;" vertex="1" parent="WIyWlLk6GJQsqaUBKTNV-1">
          <mxGeometry x="415" y="770" width="160" height="90" as="geometry" />
        </mxCell>
        <mxCell id="K_ub_zV081_PAnOze9xM-38" value="" style="endArrow=classic;html=1;rounded=0;fontFamily=Helvetica;fontSize=12;fontColor=default;" edge="1" parent="WIyWlLk6GJQsqaUBKTNV-1">
          <mxGeometry width="50" height="50" relative="1" as="geometry">
            <mxPoint x="494.5" y="860" as="sourcePoint" />
            <mxPoint x="494.5" y="940" as="targetPoint" />
          </mxGeometry>
        </mxCell>
        <mxCell id="K_ub_zV081_PAnOze9xM-39" value="" style="shape=ext;double=1;rounded=1;whiteSpace=wrap;html=1;" vertex="1" parent="WIyWlLk6GJQsqaUBKTNV-1">
          <mxGeometry x="420" y="940" width="150" height="60" as="geometry" />
        </mxCell>
        <mxCell id="K_ub_zV081_PAnOze9xM-40" value="" style="endArrow=none;html=1;rounded=0;entryX=0.493;entryY=0.933;entryDx=0;entryDy=0;entryPerimeter=0;" edge="1" parent="WIyWlLk6GJQsqaUBKTNV-1">
          <mxGeometry width="50" height="50" relative="1" as="geometry">
            <mxPoint x="494.5" y="1054.03" as="sourcePoint" />
            <mxPoint x="495.45000000000005" y="1000" as="targetPoint" />
          </mxGeometry>
        </mxCell>
        <mxCell id="K_ub_zV081_PAnOze9xM-42" value="" style="shape=partialRectangle;whiteSpace=wrap;html=1;bottom=0;right=0;fillColor=none;rounded=1;strokeColor=default;align=center;verticalAlign=middle;fontFamily=Helvetica;fontSize=12;fontColor=default;direction=north;" vertex="1" parent="WIyWlLk6GJQsqaUBKTNV-1">
          <mxGeometry x="234" y="773" width="260" height="280" as="geometry" />
        </mxCell>
        <mxCell id="K_ub_zV081_PAnOze9xM-43" value="" style="html=1;whiteSpace=wrap;aspect=fixed;shape=isoRectangle;" vertex="1" parent="WIyWlLk6GJQsqaUBKTNV-1">
          <mxGeometry x="705" y="460" width="150" height="90" as="geometry" />
        </mxCell>
        <mxCell id="K_ub_zV081_PAnOze9xM-44" value="" style="endArrow=classic;html=1;rounded=0;fontFamily=Helvetica;fontSize=12;fontColor=default;" edge="1" parent="WIyWlLk6GJQsqaUBKTNV-1">
          <mxGeometry width="50" height="50" relative="1" as="geometry">
            <mxPoint x="779.5" y="547" as="sourcePoint" />
            <mxPoint x="779.5" y="627" as="targetPoint" />
          </mxGeometry>
        </mxCell>
        <mxCell id="K_ub_zV081_PAnOze9xM-46" style="edgeStyle=none;rounded=0;orthogonalLoop=1;jettySize=auto;html=1;exitX=1;exitY=0;exitDx=0;exitDy=0;fontFamily=Helvetica;fontSize=12;fontColor=default;" edge="1" parent="WIyWlLk6GJQsqaUBKTNV-1" source="K_ub_zV081_PAnOze9xM-45">
          <mxGeometry relative="1" as="geometry">
            <mxPoint x="870" y="627" as="targetPoint" />
          </mxGeometry>
        </mxCell>
        <mxCell id="K_ub_zV081_PAnOze9xM-45" value="" style="shape=ext;double=1;rounded=1;whiteSpace=wrap;html=1;" vertex="1" parent="WIyWlLk6GJQsqaUBKTNV-1">
          <mxGeometry x="692.5" y="627" width="175" height="67" as="geometry" />
        </mxCell>
        <mxCell id="K_ub_zV081_PAnOze9xM-48" value="" style="endArrow=classic;html=1;rounded=0;fontFamily=Helvetica;fontSize=12;fontColor=default;" edge="1" parent="WIyWlLk6GJQsqaUBKTNV-1">
          <mxGeometry width="50" height="50" relative="1" as="geometry">
            <mxPoint x="779.5" y="694" as="sourcePoint" />
            <mxPoint x="779.5" y="774" as="targetPoint" />
          </mxGeometry>
        </mxCell>
        <mxCell id="K_ub_zV081_PAnOze9xM-49" value="" style="shape=ext;double=1;rounded=1;whiteSpace=wrap;html=1;" vertex="1" parent="WIyWlLk6GJQsqaUBKTNV-1">
          <mxGeometry x="700" y="773" width="160" height="90" as="geometry" />
        </mxCell>
        <mxCell id="K_ub_zV081_PAnOze9xM-50" value="" style="endArrow=classic;html=1;rounded=0;fontFamily=Helvetica;fontSize=12;fontColor=default;" edge="1" parent="WIyWlLk6GJQsqaUBKTNV-1">
          <mxGeometry width="50" height="50" relative="1" as="geometry">
            <mxPoint x="779.5" y="863" as="sourcePoint" />
            <mxPoint x="779.5" y="943" as="targetPoint" />
          </mxGeometry>
        </mxCell>
        <mxCell id="K_ub_zV081_PAnOze9xM-51" value="" style="shape=ext;double=1;rounded=1;whiteSpace=wrap;html=1;" vertex="1" parent="WIyWlLk6GJQsqaUBKTNV-1">
          <mxGeometry x="705" y="943" width="165" height="77" as="geometry" />
        </mxCell>
        <mxCell id="K_ub_zV081_PAnOze9xM-53" value="" style="shape=ext;double=1;rounded=1;whiteSpace=wrap;html=1;" vertex="1" parent="WIyWlLk6GJQsqaUBKTNV-1">
          <mxGeometry x="420" y="940" width="150" height="60" as="geometry" />
        </mxCell>
        <mxCell id="K_ub_zV081_PAnOze9xM-54" value="" style="endArrow=classic;html=1;rounded=0;fontFamily=Helvetica;fontSize=12;fontColor=default;" edge="1" parent="WIyWlLk6GJQsqaUBKTNV-1">
          <mxGeometry width="50" height="50" relative="1" as="geometry">
            <mxPoint x="779.5" y="1020" as="sourcePoint" />
            <mxPoint x="779.5" y="1100" as="targetPoint" />
          </mxGeometry>
        </mxCell>
        <mxCell id="K_ub_zV081_PAnOze9xM-55" value="" style="shape=ext;double=1;rounded=1;whiteSpace=wrap;html=1;" vertex="1" parent="WIyWlLk6GJQsqaUBKTNV-1">
          <mxGeometry x="705" y="1100" width="140" height="50" as="geometry" />
        </mxCell>
        <mxCell id="K_ub_zV081_PAnOze9xM-56" value="" style="endArrow=classic;html=1;rounded=0;fontFamily=Helvetica;fontSize=12;fontColor=default;" edge="1" parent="WIyWlLk6GJQsqaUBKTNV-1">
          <mxGeometry width="50" height="50" relative="1" as="geometry">
            <mxPoint x="779.5" y="1150" as="sourcePoint" />
            <mxPoint x="779.5" y="1230" as="targetPoint" />
          </mxGeometry>
        </mxCell>
        <mxCell id="K_ub_zV081_PAnOze9xM-57" value="" style="shape=ext;double=1;rounded=1;whiteSpace=wrap;html=1;" vertex="1" parent="WIyWlLk6GJQsqaUBKTNV-1">
          <mxGeometry x="705" y="1230" width="150" height="60" as="geometry" />
        </mxCell>
        <mxCell id="K_ub_zV081_PAnOze9xM-58" value="" style="endArrow=classic;html=1;rounded=0;fontFamily=Helvetica;fontSize=12;fontColor=default;" edge="1" parent="WIyWlLk6GJQsqaUBKTNV-1">
          <mxGeometry width="50" height="50" relative="1" as="geometry">
            <mxPoint x="779.5" y="1290" as="sourcePoint" />
            <mxPoint x="779.5" y="1370" as="targetPoint" />
          </mxGeometry>
        </mxCell>
        <mxCell id="K_ub_zV081_PAnOze9xM-59" value="" style="shape=ext;double=1;rounded=1;whiteSpace=wrap;html=1;" vertex="1" parent="WIyWlLk6GJQsqaUBKTNV-1">
          <mxGeometry x="705" y="1370" width="160" height="90" as="geometry" />
        </mxCell>
        <mxCell id="K_ub_zV081_PAnOze9xM-60" value="" style="endArrow=none;html=1;rounded=0;" edge="1" parent="WIyWlLk6GJQsqaUBKTNV-1">
          <mxGeometry width="50" height="50" relative="1" as="geometry">
            <mxPoint x="639.5" y="400" as="sourcePoint" />
            <mxPoint x="640" y="360" as="targetPoint" />
          </mxGeometry>
        </mxCell>
        <mxCell id="K_ub_zV081_PAnOze9xM-61" value="" style="endArrow=none;html=1;rounded=0;entryX=0.493;entryY=0.933;entryDx=0;entryDy=0;entryPerimeter=0;" edge="1" parent="WIyWlLk6GJQsqaUBKTNV-1">
          <mxGeometry width="50" height="50" relative="1" as="geometry">
            <mxPoint x="780" y="1521" as="sourcePoint" />
            <mxPoint x="780.45" y="1467" as="targetPoint" />
          </mxGeometry>
        </mxCell>
        <mxCell id="K_ub_zV081_PAnOze9xM-62" value="" style="shape=partialRectangle;whiteSpace=wrap;html=1;bottom=0;right=0;fillColor=none;rounded=1;strokeColor=default;align=center;verticalAlign=middle;fontFamily=Helvetica;fontSize=12;fontColor=default;direction=north;" vertex="1" parent="WIyWlLk6GJQsqaUBKTNV-1">
          <mxGeometry x="340" y="1052" width="440" height="468" as="geometry" />
        </mxCell>
        <mxCell id="K_ub_zV081_PAnOze9xM-64" value="" style="endArrow=classic;html=1;rounded=0;fontFamily=Helvetica;fontSize=12;fontColor=default;" edge="1" parent="WIyWlLk6GJQsqaUBKTNV-1">
          <mxGeometry width="50" height="50" relative="1" as="geometry">
            <mxPoint x="494" y="1521" as="sourcePoint" />
            <mxPoint x="494" y="1601" as="targetPoint" />
          </mxGeometry>
        </mxCell>
        <mxCell id="K_ub_zV081_PAnOze9xM-65" value="" style="shape=ext;double=1;rounded=1;whiteSpace=wrap;html=1;" vertex="1" parent="WIyWlLk6GJQsqaUBKTNV-1">
          <mxGeometry x="438" y="1600" width="110" height="60" as="geometry" />
        </mxCell>
        <mxCell id="K_ub_zV081_PAnOze9xM-66" value="" style="shape=ext;double=1;rounded=1;whiteSpace=wrap;html=1;strokeColor=default;align=center;verticalAlign=middle;fontFamily=Helvetica;fontSize=12;fontColor=default;fillColor=default;" vertex="1" parent="WIyWlLk6GJQsqaUBKTNV-1">
          <mxGeometry x="-130" y="20" width="120" height="80" as="geometry" />
        </mxCell>
        <mxCell id="K_ub_zV081_PAnOze9xM-67" value="" style="shape=ext;double=1;rounded=1;whiteSpace=wrap;html=1;" vertex="1" parent="WIyWlLk6GJQsqaUBKTNV-1">
          <mxGeometry x="-110" y="200" width="200" height="60" as="geometry" />
        </mxCell>
        <mxCell id="K_ub_zV081_PAnOze9xM-68" value="" style="endArrow=classic;html=1;rounded=0;fontFamily=Helvetica;fontSize=12;fontColor=default;" edge="1" parent="WIyWlLk6GJQsqaUBKTNV-1">
          <mxGeometry width="50" height="50" relative="1" as="geometry">
            <mxPoint x="-11" y="260" as="sourcePoint" />
            <mxPoint x="-11" y="340" as="targetPoint" />
          </mxGeometry>
        </mxCell>
        <mxCell id="K_ub_zV081_PAnOze9xM-69" value="" style="shape=ext;double=1;rounded=1;whiteSpace=wrap;html=1;" vertex="1" parent="WIyWlLk6GJQsqaUBKTNV-1">
          <mxGeometry x="-92.5" y="340" width="165" height="77" as="geometry" />
        </mxCell>
        <mxCell id="K_ub_zV081_PAnOze9xM-70" value="" style="endArrow=classic;html=1;rounded=0;fontFamily=Helvetica;fontSize=12;fontColor=default;" edge="1" parent="WIyWlLk6GJQsqaUBKTNV-1">
          <mxGeometry width="50" height="50" relative="1" as="geometry">
            <mxPoint x="-10.5" y="417" as="sourcePoint" />
            <mxPoint x="-10.5" y="497" as="targetPoint" />
          </mxGeometry>
        </mxCell>
        <mxCell id="K_ub_zV081_PAnOze9xM-71" value="" style="html=1;whiteSpace=wrap;aspect=fixed;shape=isoRectangle;" vertex="1" parent="WIyWlLk6GJQsqaUBKTNV-1">
          <mxGeometry x="-98" y="494.5" width="175" height="105" as="geometry" />
        </mxCell>
        <mxCell id="K_ub_zV081_PAnOze9xM-2" value="Jika pilihan&lt;div&gt;1&lt;/div&gt;" style="html=1;whiteSpace=wrap;aspect=fixed;shape=isoRectangle;" vertex="1" parent="WIyWlLk6GJQsqaUBKTNV-1">
          <mxGeometry x="343" y="17" width="200" height="120" as="geometry" />
        </mxCell>
      </root>
    </mxGraphModel>
  </diagram>
</mxfile>
